<?xml version="1.0" ?><!DOCTYPE svg  PUBLIC '-//W3C//DTD SVG 1.1//EN'  'http://www.w3.org/Graphics/SVG/1.1/DTD/svg11.dtd'><svg enable-background="new 0 0 64 64" id="Layer_1" version="1.1" viewBox="0 0 64 64" xml:space="preserve" xmlns="http://www.w3.org/2000/svg" xmlns:xlink="http://www.w3.org/1999/xlink"><g><g><circle cx="32" cy="32" fill="#F16051" r="31.5"/></g><g><g><path d="M39.7,63v-7h4c2,0,3.6-1.6,3.6-3.6v-7.9h5.6L48,35.2c0-10.6-8.9-19-19.6-18.4c-9.4,0.6-17,8.4-17.2,17.8     c-0.2,6.1,2.6,11.6,7,15V63" fill="#FFFFFF"/><path d="M40.7,63h-2v-8h5c1.4,0,2.6-1.2,2.6-2.6v-8.9h4.9L47,35.5v-0.2c0-4.9-1.9-9.4-5.5-12.7     c-3.5-3.3-8.2-5-13-4.7c-8.9,0.5-16,8-16.3,16.9c-0.2,5.6,2.3,10.8,6.7,14.2l0.4,0.3V63h-2V50.2c-4.7-3.8-7.2-9.5-7-15.5     c0.3-9.9,8.3-18.2,18.2-18.8c5.4-0.3,10.6,1.5,14.5,5.2c3.8,3.6,6,8.7,6.1,13.9l5.4,10.5h-6.2v6.9c0,2.5-2.1,4.6-4.6,4.6h-3V63z" fill="#193651"/></g><g><path d="M22.5,45.8c0,0-0.1-2.9-3-4.9s-2.4-2.2-3.1-3.8c0,0-2.1-3-0.5-6c0,0-0.5-4,2.9-5.5c0,0,1.9-4,5.5-2.5     c0,0,2.7-3.3,5.7-0.6c0,0,4-2.4,5.9,1.4c0,0,4.4-0.4,4.7,3.6c0,0,4.9,2.5,1.6,7.5c0,0-1.6,2.3-5.9,0.7c0,0-2.5,1.6-5.3,0     c0,0-3.9,1.6-4.2,5c-0.3,3.4-0.1,5.1-0.1,5.1H22.5z" fill="#D3D7DA"/></g><g><polygon fill="#FFFFFF" points="31.3,1 27.8,8.3 31.3,8.3 31.3,13.6 34.9,6.7 31.3,6.7    "/></g><g><line fill="#FFFFFF" x1="24.1" x2="24.1" y1="29.3" y2="31.3"/><rect fill="#193651" height="2" width="2" x="23.1" y="29.3"/></g><g><line fill="#FFFFFF" x1="29.3" x2="29.3" y1="29.3" y2="31.3"/><rect fill="#193651" height="2" width="2" x="28.3" y="29.3"/></g><g><line fill="#FFFFFF" x1="34.5" x2="34.5" y1="29.3" y2="31.3"/><rect fill="#193651" height="2" width="2" x="33.5" y="29.3"/></g></g></g></svg>