<?xml version="1.0" ?><!DOCTYPE svg  PUBLIC '-//W3C//DTD SVG 1.1//EN'  'http://www.w3.org/Graphics/SVG/1.1/DTD/svg11.dtd'><svg enable-background="new 0 0 64 64" id="Layer_1" version="1.1" viewBox="0 0 64 64" xml:space="preserve" xmlns="http://www.w3.org/2000/svg" xmlns:xlink="http://www.w3.org/1999/xlink"><g><g><g><rect fill="#FFFFFF" height="50" width="54.6" x="4.7" y="13"/><path d="M60.3,64H3.7V12h56.6V64z M5.7,62h52.6V14H5.7V62z" fill="#193651"/></g><g><rect fill="#FFFFFF" height="26.5" width="22.6" x="20.7" y="36.5"/><path d="M44.3,64H19.7V35.5h24.6V64z M21.7,62h20.6V37.5H21.7V62z" fill="#193651"/></g><g><line fill="#FFFFFF" x1="32" x2="32" y1="36.5" y2="63"/><rect fill="#193651" height="26.5" width="2" x="31" y="36.5"/></g><g><polyline fill="#E1E6E9" points="4.7,31.8 4.7,23.7 59.3,23.7 59.3,31.8    "/></g><path d="M7.1,19.9L7.1,19.9c-4,0-6.9-3.9-5.9-7.8L5.7,1h10.5l-3.1,13.8C12.6,17.7,10.1,19.9,7.1,19.9z" fill="#F16051"/><path d="M19.7,19.9h-0.2c-3.8,0-6.6-3.4-6-7.2L16.2,1h10.5l-1,13.1C25.6,17.4,22.9,19.9,19.7,19.9z" fill="#F16051"/><path d="M32.1,19.9h-0.3c-3.5,0-6.3-3-6.1-6.5l1-12.4h10.5l1,12.4C38.4,16.9,35.6,19.9,32.1,19.9z" fill="#F16051"/><path d="M44.6,19.9h-0.2c-3.2,0-5.9-2.6-6.1-5.8L37.3,1h10.5l2.8,11.7C51.2,16.5,48.3,19.9,44.6,19.9z" fill="#F16051"/><path d="M62.8,12.1L58.3,1h-8.6c0,0.2,0.1,0.3,0.1,0.5c0.2,1.1-0.2,2.3-1.2,2.8l2.3,10.4c0.5,3,3,5.2,6,5.2    C60.9,19.9,63.8,16,62.8,12.1z" fill="#F16051"/><path d="M62,62h-1.7V19c-0.6,0.3-1.3,0.5-2,0.4V62H5.7V18.9c-0.7,0.2-1.4,0.2-2-0.1V62H2v2h1.7l0,0h56.6l0,0H62V62    z" fill="#193651"/><g><line fill="#FFFFFF" x1="35.8" x2="35.8" y1="47.9" y2="51.7"/><rect fill="#193651" height="3.8" width="2" x="34.8" y="47.9"/></g><g><line fill="#FFFFFF" x1="28.2" x2="28.2" y1="47.9" y2="51.7"/><rect fill="#193651" height="3.8" width="2" x="27.2" y="47.9"/></g><g><rect fill="#193651" height="2" width="2" x="9.6" y="26.7"/></g><g><rect fill="#193651" height="2" width="2" x="15.7" y="26.7"/></g><g><rect fill="#193651" height="2" width="2" x="21.8" y="26.7"/></g><g><rect fill="#193651" height="2" width="2" x="27.9" y="26.7"/></g><g><rect fill="#193651" height="2" width="2" x="34.1" y="26.7"/></g><g><rect fill="#193651" height="2" width="2" x="40.2" y="26.7"/></g><g><rect fill="#193651" height="2" width="2" x="46.3" y="26.7"/></g><g><rect fill="#193651" height="2" width="2" x="52.4" y="26.7"/></g><g><polyline fill="#F16051" points="11.9,4.5 11.9,1 54.1,1 54.1,4.5    "/></g><g><line fill="#F16051" x1="10" x2="56.1" y1="1" y2="1"/><path d="M63.7,11.8L59,0H5L0.3,11.7l0,0.1c-0.6,2.2-0.2,4.5,1.2,6.3c1.4,1.8,3.4,2.8,5.6,2.8c2.6,0,5-1.5,6.2-3.6     c0.2,0.4,0.5,0.8,0.8,1.1c1.3,1.6,3.3,2.5,5.4,2.5h0.2c2.6,0,4.9-1.4,6.1-3.5c0.3,0.5,0.6,0.9,1,1.3c1.4,1.4,3.2,2.2,5.1,2.2h0.3     c2,0,3.8-0.8,5.1-2.2c0.4-0.4,0.7-0.8,1-1.3c1.2,2.1,3.5,3.5,6.1,3.5h0.2c2.1,0,4-0.9,5.4-2.5c0.3-0.4,0.6-0.7,0.8-1.1     c1.2,2.2,3.5,3.6,6.2,3.6c2.2,0,4.3-1,5.6-2.8C63.9,16.3,64.3,14,63.7,11.8z M60.9,16.9c-1,1.3-2.4,2-4,2c-2.5,0-4.6-1.8-5-4.4     L49.6,4.5h0h-1.3h-0.7l0,0.2c0,0,0,0,0,0l2,9.1c0,1.2-0.4,2.4-1.2,3.4c-1,1.1-2.4,1.8-3.9,1.8c0,0-5.2-2.1-5.3-4.9l-0.7-9.5h0h-2     h0l0.7,9.1c0,1.4-3.7,5.3-5.1,5.3c0,0-5.4-3.9-5.4-5.3l0.7-9.1h0h-2h0c0,0-0.7,9-0.7,9.1c0,0-2.4,5.4-5.1,5.4h-0.2     c-1.5,0-2.9-0.7-3.9-1.8c-0.8-1-1.2-2.2-1.2-3.4l2.1-9.3h0h-2h0c-0.7,3.2-2,8.7-2,9l-0.2,1.1c-0.4,2.5-2.5,4.3-5,4.3     c-1.6,0-3.1-0.7-4-2c-1-1.3-1.3-2.9-0.9-4.5L6.4,2h51.3l4.2,10.4C62.2,14,61.9,15.6,60.9,16.9z" fill="#193651"/></g><g><rect fill="#FFFFFF" height="50" width="54.6" x="4.7" y="13"/><path d="M60.3,64H3.7V12h56.6V64z M5.7,62h52.6V14H5.7V62z" fill="#193651"/></g><rect fill="#FFFFFF" height="26.5" width="22.6" x="20.7" y="36.5"/><line fill="#FFFFFF" x1="32" x2="32" y1="36.5" y2="63"/><g><polyline fill="#E1E6E9" points="4.7,31.8 4.7,23.7 59.3,23.7 59.3,31.8    "/></g><path d="M7.1,19.9L7.1,19.9c-4,0-6.9-3.9-5.9-7.8L5.7,1h10.5l-3.1,13.8C12.6,17.7,10.1,19.9,7.1,19.9z" fill="#F16051"/><path d="M19.7,19.9h-0.2c-3.8,0-6.6-3.4-6-7.2L16.2,1h10.5l-1,13.1C25.6,17.4,22.9,19.9,19.7,19.9z" fill="#F16051"/><path d="M32.1,19.9h-0.3c-3.5,0-6.3-3-6.1-6.5l1-12.4h10.5l1,12.4C38.4,16.9,35.6,19.9,32.1,19.9z" fill="#F16051"/><path d="M44.6,19.9h-0.2c-3.2,0-5.9-2.6-6.1-5.8L37.3,1h10.5l2.8,11.7C51.2,16.5,48.3,19.9,44.6,19.9z" fill="#F16051"/><path d="M62.8,12.1L58.3,1h-8.6c0,0.2,0.1,0.3,0.1,0.5c0.2,1.1-0.2,2.3-1.2,2.8l2.3,10.4c0.5,3,3,5.2,6,5.2    C60.9,19.9,63.8,16,62.8,12.1z" fill="#F16051"/><g><line fill="#FFFFFF" x1="35.8" x2="35.8" y1="47.9" y2="51.7"/><rect fill="#193651" height="3.8" width="2" x="34.8" y="47.9"/></g><g><line fill="#FFFFFF" x1="28.2" x2="28.2" y1="47.9" y2="51.7"/><rect fill="#193651" height="3.8" width="2" x="27.2" y="47.9"/></g><g><rect fill="#193651" height="2" width="2" x="9.6" y="26.7"/></g><g><rect fill="#193651" height="2" width="2" x="15.7" y="26.7"/></g><g><rect fill="#193651" height="2" width="2" x="21.8" y="26.7"/></g><g><rect fill="#193651" height="2" width="2" x="27.9" y="26.7"/></g><g><rect fill="#193651" height="2" width="2" x="34.1" y="26.7"/></g><g><rect fill="#193651" height="2" width="2" x="40.2" y="26.7"/></g><g><rect fill="#193651" height="2" width="2" x="46.3" y="26.7"/></g><g><rect fill="#193651" height="2" width="2" x="52.4" y="26.7"/></g><g><polyline fill="#F16051" points="11.9,4.5 11.9,1 54.1,1 54.1,4.5    "/></g><path d="M63.7,11.8L59,0H5L0.3,11.8c-1.2,5.3,2.6,7.7,3.4,8.2v42H2v2H62v-2h-1.7V20c0.8-0.5,1.6-1.1,2.2-1.9    C63.9,16.3,64.3,14,63.7,11.8z M42.3,62H33V37.5h9.3V62z M31,62h-9.3V37.5H31V62z M58.3,62h-14V35.5H19.7V62h-14V20.8    c0.5,0.1,4.8,1,7.6-3.5c1.5,2.5,3.7,3.6,6.4,3.6c2.6,0,4.9-1.4,6.1-3.5c1.6,2.3,3.6,3.6,6.1,3.5c0,0,3.2,0.2,5.4-2.2    c0.4-0.4,0.7-0.8,1-1.3c2.4,3.9,6.3,3.5,6.3,3.5c2.1,0,4-0.9,5.4-2.5c0.3-0.4,0.6-0.7,0.8-1.1c2.7,4.5,7.1,3.6,7.6,3.5V62z     M60.9,16.9c-1,1.3-2.4,2-4,2c-2.5,0-4.6-1.8-5-4.4L49.6,4.5h0h-1.3h-0.7l0,0.2c0,0,0,0,0,0l2,9.1c0,1.2-0.4,2.4-1.2,3.4    c-1,1.1-2.4,1.8-3.9,1.8c0,0-4.7,0.2-5.3-4.9l-0.7-9.5h0h-2h0l0.7,9.1c-0.1,4.6-5.2,7.3-9,3.7c-1-1-1.5-2.3-1.4-3.7l0.7-9.1h0h-2    h0l-0.7,9.1c-1.6,3.2-3.3,5.2-5.1,5.4c0,0-4.9,0.2-5.3-5.1l2.1-9.3h0h-2h0l-2.2,10.1c-0.4,2.5-2.5,4.3-5,4.3c-1.6,0-3.1-0.7-4-2    c-1-1.3-1.3-2.9-0.9-4.5L6.4,2h51.3l4.2,10.4C62.2,14,61.9,15.6,60.9,16.9z" fill="#193651"/></g></g></svg>