<?xml version="1.0" ?><!DOCTYPE svg  PUBLIC '-//W3C//DTD SVG 1.1//EN'  'http://www.w3.org/Graphics/SVG/1.1/DTD/svg11.dtd'><svg enable-background="new 0 0 64 64" id="Layer_1" version="1.1" viewBox="0 0 64 64" xml:space="preserve" xmlns="http://www.w3.org/2000/svg" xmlns:xlink="http://www.w3.org/1999/xlink"><g><g><circle cx="32" cy="31.7" fill="#FDBF5E" r="31.3"/><path d="M56.5,49.8c0,4.5-1.2,8.6-3.3,12.2C49,54.7,41.1,49.8,32,49.8c-9,0-17,4.9-21.2,12.2    c-2.1-3.6-3.3-7.8-3.3-12.2c0-13.5,11-24.5,24.5-24.5C45.5,25.4,56.5,36.3,56.5,49.8z" fill="#F16051"/><path d="M41.3,55.2c8.4-17.6,5.3-39.3-9.3-53.8h0c-14.6,14.6-17.6,36.2-9.3,53.8L41.3,55.2z" fill="#FFFFFF"/><path d="M41.9,56.2H22.1l-0.3-0.6c-8.8-18.4-5-40.5,9.4-54.9L32,0l0.7,0.7c14.4,14.4,18.2,36.5,9.4,54.9L41.9,56.2    z M23.4,54.2h17.3c8-17.3,4.5-37.7-8.6-51.4C18.9,16.5,15.4,37,23.4,54.2z" fill="#193651"/><path d="M41.5,15.1c-2.3-5-5.4-9.6-9.5-13.7h0c-4.1,4.1-7.3,8.7-9.5,13.7H41.5z" fill="#F16051"/><path d="M46.4,28.9c-1.3-10.4-6-20.4-13.8-28.2L32,0l-0.7,0.7c-7.8,7.8-12.5,17.8-13.8,28.2    c-6.6,4.6-11,12.2-11,20.9c0,4.5,1.2,8.9,3.4,12.7l0.8,1.5l0.8-1.5c2.2-3.9,5.5-6.9,9.3-8.9c0.3,0.7,0.6,1.4,0.9,2l0.3,0.6h19.7    c0,0,1-2.1,1.3-2.9c0,0.1,7,5.4,9.2,9.2l0.8,1.5l0.8-1.5c2.2-3.9,3.4-8.3,3.4-12.7C57.4,41.2,53.1,33.5,46.4,28.9z M10.9,60.1    c-1.5-3.2-2.4-6.7-2.4-10.3c0-7.4,3.4-14,8.8-18.3c-0.5,6.8,0.5,13.7,2.9,20.2C16.5,53.7,13.3,56.5,10.9,60.1z M40.6,54.2H23.4    C15.4,37,18.9,16.5,32,2.8C45.1,16.5,48.6,37,40.6,54.2z M53.1,60.1c-2.4-3.6-5.6-6.4-9.3-8.3c2.5-6.6,3.4-13.5,2.9-20.2    c5.3,4.3,8.8,10.9,8.8,18.3C55.5,53.4,54.7,56.9,53.1,60.1z" fill="#193651"/><path d="M37.5,25.4c0.9,4.1-2.7,7.7-6.8,6.8c-2.1-0.5-3.8-2.1-4.2-4.2c-0.9-4.1,2.7-7.7,6.8-6.8    C35.4,21.7,37,23.3,37.5,25.4z" fill="#2EA2DB"/><rect fill="#193651" height="2" width="2" x="27.3" y="48.5"/><rect fill="#193651" height="2" width="2" x="31" y="48.5"/><rect fill="#193651" height="2" width="2" x="34.7" y="48.5"/></g></g></svg>