<?xml version="1.0" ?><!DOCTYPE svg  PUBLIC '-//W3C//DTD SVG 1.1//EN'  'http://www.w3.org/Graphics/SVG/1.1/DTD/svg11.dtd'><svg enable-background="new 0 0 64 64" id="Layer_1" version="1.1" viewBox="0 0 64 64" xml:space="preserve" xmlns="http://www.w3.org/2000/svg" xmlns:xlink="http://www.w3.org/1999/xlink"><g><rect fill="#4FBF9F" height="17.9" width="8.7" x="54.3" y="4.6"/><path d="M53.3,3.6v1.7h-1.8l-15.1-5c-1.5-0.5-3.2-0.4-4.6,0.4l-18,9.5c-1.8,1-2.5,3.2-1.7,5c0.8,1.8,2.9,2.6,4.7,2   l10.8-3.7c0,0.2,0,0.4,0,0.6c0,2.2,1.8,4,4,4l8.2,0c0.2,0,0.5,0,0.7,0.1l5.3,2.8L46,21c0.5,0.2,1,0.3,1.6,0.3h5.8v2.2H64V3.6H53.3z    M47.5,19.3c-0.3,0-0.6,0-0.8-0.1l-5.3-2.8l-0.1-0.1c-0.5-0.2-1-0.3-1.5-0.3l-8.2,0c-1.1,0-2-0.9-2-2c0-0.6,0.3-1.1,0.7-1.5   l1.5-0.5h6.6c1.8,0,3.2-1.5,3.2-3.2h-2c0,0.7-0.6,1.2-1.2,1.2h-6.8c-0.9,0-1.6,0.3-2.3,0.7l-13.1,4.5c-0.9,0.3-1.8-0.1-2.2-0.9   c-0.4-0.9-0.1-1.9,0.8-2.4l18-9.5c0.9-0.5,2-0.6,3-0.2l15.4,5.1h2.2v11.9H47.5z M62,21.5h-6.7v-0.2V5.6H62V21.5z" fill="#193651"/><rect fill="#FDBF5E" height="17.9" width="8.7" x="1" y="41.5"/><line fill="#FFFFFF" x1="6.4" x2="4.4" y1="54.5" y2="54.5"/><rect fill="#193651" height="2" width="2" x="4.4" y="53.5"/><line fill="#FFFFFF" x1="6.4" x2="4.4" y1="50.5" y2="50.5"/><rect fill="#193651" height="2" width="2" x="4.4" y="49.5"/><line fill="#FFFFFF" x1="6.4" x2="4.4" y1="46.5" y2="46.5"/><rect fill="#193651" height="2" width="2" x="4.4" y="45.5"/><line fill="#FFFFFF" x1="59.6" x2="57.6" y1="17.5" y2="17.5"/><rect fill="#193651" height="2" width="2" x="57.6" y="16.5"/><line fill="#FFFFFF" x1="59.6" x2="57.6" y1="13.5" y2="13.5"/><rect fill="#193651" height="2" width="2" x="57.6" y="12.5"/><line fill="#FFFFFF" x1="59.6" x2="57.6" y1="9.5" y2="9.5"/><rect fill="#193651" height="2" width="2" x="57.6" y="8.5"/><path d="M51.8,48.8c-0.8-1.8-2.9-2.6-4.7-2l-10.8,3.7c0-0.2,0-0.4,0-0.6c0-2.2-1.8-4-4-4h-8.2c-0.2,0-0.5,0-0.7-0.1   l-5.3-2.8L18,43c-0.5-0.2-1-0.3-1.6-0.3h-5.8v-2.2H0v19.9h10.7v-1.7h1.8l15.1,5c0.6,0.2,1.2,0.3,1.8,0.3c0.9,0,1.9-0.2,2.7-0.7   l18-9.5C51.9,52.9,52.7,50.7,51.8,48.8z M2,42.5h6.7v0.2v15.7H2V42.5z M49.2,52.1l-18,9.5c-0.9,0.5-2,0.6-3,0.2l-15.4-5.1h-2.2   V44.7h5.8c0.3,0,0.6,0,0.8,0.1l5.3,2.8l0.1,0.1c0.5,0.2,1,0.3,1.4,0.3h8.2c1.1,0,2,0.9,2,2c0,0.6-0.3,1.1-0.7,1.5l-1.5,0.5h-6.6   c-1.8,0-3.2,1.5-3.2,3.2h2c0-0.7,0.6-1.2,1.2-1.2h6.8c0.9,0,1.6-0.3,2.3-0.7l13.1-4.5c0.9-0.3,1.8,0.1,2.2,0.9   C50.4,50.6,50,51.6,49.2,52.1z" fill="#193651"/><line fill="#FFFFFF" x1="31" x2="22.6" y1="31.9" y2="31.9"/><rect fill="#193651" height="2" width="8.4" x="22.6" y="30.9"/><circle cx="21.7" cy="31.9" fill="#FDBF5E" r="2.5"/><line fill="#FFFFFF" x1="31" x2="35.2" y1="31.9" y2="39.3"/><rect fill="#193651" height="2" transform="matrix(0.5 0.866 -0.866 0.5 47.3833 -10.8724)" width="8.4" x="28.9" y="34.6"/><circle cx="35.6" cy="40" fill="#F16051" r="2.5"/><line fill="#FFFFFF" x1="31" x2="35.2" y1="31.9" y2="24.6"/><rect fill="#193651" height="8.4" transform="matrix(0.8661 0.4999 -0.4999 0.8661 18.5739 -12.7632)" width="2" x="32.1" y="24.1"/><circle cx="35.6" cy="23.9" fill="#4FBF9F" r="2.5"/><circle cx="31" cy="31.9" fill="#E1E6E9" r="3.7"/></g></svg>