<?xml version="1.0" ?><!DOCTYPE svg  PUBLIC '-//W3C//DTD SVG 1.1//EN'  'http://www.w3.org/Graphics/SVG/1.1/DTD/svg11.dtd'><svg enable-background="new 0 0 64 64" id="Layer_1" version="1.1" viewBox="0 0 64 64" xml:space="preserve" xmlns="http://www.w3.org/2000/svg" xmlns:xlink="http://www.w3.org/1999/xlink"><g><path d="M38,28.8V6.7h0.2c1.4,0,2.6-0.9,2.9-2.3C41.4,2.6,40,1,38.3,1H38l0,0H26l0,0h-0.2c-1.4,0-2.6,0.9-2.9,2.3   c-0.3,1.8,1,3.4,2.8,3.4H26v22.1c0,1.7-0.6,3.4-1.7,4.8L5.2,57.6C3.5,59.8,5.1,63,7.8,63H26h12h18.2c2.8,0,4.3-3.2,2.6-5.4   L39.7,33.6C38.6,32.2,38,30.5,38,28.8z" fill="#FFFFFF"/><path d="M56.2,64H7.8c-1.7,0-3.1-0.9-3.9-2.4c-0.7-1.5-0.5-3.2,0.5-4.5l19.1-24.1c0.9-1.2,1.4-2.7,1.4-4.2V7.6   c-0.9-0.2-1.7-0.6-2.2-1.3c-0.7-0.9-1-2-0.8-3.2c0.3-1.8,2-3.1,3.9-3.1h12.4c1.1,0,2.2,0.5,3,1.4c0.7,0.9,1,2,0.8,3.2   c-0.3,1.5-1.5,2.7-3,3v21.2c0,1.5,0.5,3,1.4,4.2L59.5,57c1,1.3,1.2,3,0.5,4.5C59.3,63.1,57.8,64,56.2,64z M25.8,2   c-0.9,0-1.7,0.6-1.9,1.5C23.8,4,24,4.6,24.3,5c0.4,0.4,0.9,0.7,1.4,0.7H27v23.1c0,2-0.7,3.9-1.9,5.4L6,58.3   c-0.6,0.7-0.7,1.6-0.3,2.4C6.2,61.5,6.9,62,7.8,62h48.3c0.9,0,1.7-0.5,2.1-1.3c0.4-0.8,0.3-1.7-0.3-2.4L38.9,34.2   c-1.2-1.5-1.9-3.4-1.9-5.4V5.7h1.2c0.9,0,1.7-0.6,1.9-1.5c0.1-0.6,0-1.1-0.4-1.5C39.3,2.2,38.8,2,38.3,2H25.8z" fill="#193651"/><path d="M44.2,39.3H19.8L5.2,57.6C3.5,59.8,5.1,63,7.8,63h48.3c2.8,0,4.3-3.2,2.6-5.4L44.2,39.3z" fill="#D3D7DA"/><path d="M59.5,57L40.4,32.9c-0.9-1.2-1.4-2.7-1.4-4.2v-5l9,1.6L60,12.1l-1.5-1.3L47.3,23.2L39,21.7V7.6   c1.5-0.3,2.7-1.5,3-3c0.2-1.1-0.1-2.3-0.8-3.2c-0.7-0.9-1.8-1.4-3-1.4H25.8c-1.9,0-3.5,1.3-3.9,3.1c-0.2,1.1,0.1,2.3,0.8,3.2   C23.3,7,24.1,7.4,25,7.6v11.6l-8.3-1.5L3.8,31.1l1.4,1.4l12.2-12.6l7.6,1.4v7.5c0,1.5-0.5,3-1.4,4.2L4.5,57c-1,1.3-1.2,3-0.5,4.5   C4.7,63.1,6.2,64,7.8,64h48.3c1.7,0,3.1-0.9,3.9-2.4C60.8,60.1,60.6,58.3,59.5,57z M58.2,60.7c-0.4,0.8-1.2,1.3-2.1,1.3H7.8   c-0.9,0-1.7-0.5-2.1-1.3C5.4,59.9,5.5,59,6,58.3l19.1-24.1c1.2-1.5,1.9-3.4,1.9-5.4v-0.7h3.6v-2H27v-3.4h3.6v-2H27v-3.4h3.6v-2H27   v-3.4h3.6v-2H27V6.7c0-0.6-0.4-1-1-1h-0.3c-0.5,0-1.1-0.2-1.4-0.7c-0.4-0.4-0.5-1-0.4-1.5c0.2-0.8,1-1.5,1.9-1.5h12.4   c0.5,0,1.1,0.2,1.4,0.7c0.4,0.4,0.5,1,0.4,1.5c-0.2,0.8-1,1.5-1.9,1.5H38c-0.6,0-1,0.4-1,1v22.1c0,2,0.7,3.9,1.9,5.4L58,58.3   C58.5,59,58.6,59.9,58.2,60.7z" fill="#193651"/><path d="M46.9,57.1h-2v-2h2V57.1z M42.9,57.1h-2v-2h2V57.1z M38.9,57.1h-2v-2h2V57.1z M34.9,57.1h-2v-2h2V57.1z    M30.9,57.1h-2v-2h2V57.1z M26.9,57.1h-2v-2h2V57.1z M22.9,57.1h-2v-2h2V57.1z M18.9,57.1h-2v-2h2V57.1z" fill="#193651"/><circle cx="47.7" cy="24.3" fill="#2EA2DB" r="4"/><circle cx="5" cy="31.7" fill="#F16051" r="4"/><circle cx="16.9" cy="18.8" fill="#4FBF9F" r="4"/><circle cx="59.2" cy="11.5" fill="#FDBF5E" r="3.8"/></g></svg>