<?xml version="1.0" ?><!DOCTYPE svg  PUBLIC '-//W3C//DTD SVG 1.1//EN'  'http://www.w3.org/Graphics/SVG/1.1/DTD/svg11.dtd'><svg enable-background="new 0 0 64 64" id="Layer_1" version="1.1" viewBox="0 0 64 64" xml:space="preserve" xmlns="http://www.w3.org/2000/svg" xmlns:xlink="http://www.w3.org/1999/xlink"><g><g><path d="M47.1,40.3h-2V20.7l11-15.5c0.6-0.9,0.3-2.3-0.6-2.9c-0.5-0.3-1-0.4-1.6-0.3c-0.6,0.1-1,0.4-1.3,0.9    L41.2,18.9H22.8L11.4,3c-0.3-0.5-0.8-0.8-1.4-0.9C9.5,1.9,9,2,8.5,2.3c-1,0.6-1.2,2-0.6,2.9l11,15.4v19.6h-2V21.3L6.2,6.4    C5,4.5,5.5,1.9,7.4,0.7c0.9-0.6,2-0.8,3.1-0.6c1.1,0.2,2,0.9,2.6,1.8l10.7,15h16.4l10.7-15c0.6-0.9,1.5-1.5,2.6-1.7    c1.1-0.2,2.2,0,3.1,0.6c1.9,1.2,2.4,3.8,1.2,5.7l-10.7,15V40.3z" fill="#193651"/></g><g><circle cx="32" cy="8.3" fill="#D3D7DA" r="6"/><path d="M32,15.3c-3.9,0-7-3.2-7-7c0-3.9,3.2-7,7-7s7,3.2,7,7C39,12.2,35.9,15.3,32,15.3z M32,3.3    c-2.8,0-5,2.3-5,5s2.3,5,5,5c2.8,0,5-2.3,5-5S34.8,3.3,32,3.3z" fill="#193651"/></g><g><g><line fill="#FFFFFF" x1="33" x2="31" y1="24.1" y2="24.1"/><rect fill="#193651" height="2" width="2" x="31" y="23.1"/></g><g><line fill="#FFFFFF" x1="33" x2="31" y1="29" y2="29"/><rect fill="#193651" height="2" width="2" x="31" y="28"/></g><g><line fill="#FFFFFF" x1="33" x2="31" y1="33.8" y2="33.8"/><rect fill="#193651" height="2" width="2" x="31" y="32.8"/></g></g><g><path d="M17.3,63v-3.8c0-4.5-3.7-8.2-8.2-8.2l0,0c-4.5,0-8.2,3.7-8.2,8.2V63H17.3z" fill="#FDBF5E"/><path d="M18.3,64H0v-4.8c0-5,4.1-9.2,9.2-9.2c5,0,9.2,4.1,9.2,9.2V64z M2,62h14.3v-2.8c0-3.9-3.2-7.2-7.2-7.2    c-3.9,0-7.2,3.2-7.2,7.2V62z" fill="#193651"/></g><g><path d="M40.2,63v-3.8c0-4.5-3.7-8.2-8.2-8.2h0c-4.5,0-8.2,3.7-8.2,8.2V63H40.2z" fill="#F16051"/><path d="M41.2,64H22.8v-4.8c0-5,4.1-9.2,9.2-9.2c5,0,9.2,4.1,9.2,9.2V64z M24.8,62h14.3v-2.8    c0-3.9-3.2-7.2-7.2-7.2c-3.9,0-7.2,3.2-7.2,7.2V62z" fill="#193651"/></g><g><path d="M63,63v-3.8c0-4.5-3.7-8.2-8.2-8.2l0,0c-4.5,0-8.2,3.7-8.2,8.2V63H63z" fill="#4FBF9F"/><path d="M64,64H45.7v-4.8c0-5,4.1-9.2,9.2-9.2c5,0,9.2,4.1,9.2,9.2V64z M47.7,62H62v-2.8c0-3.9-3.2-7.2-7.2-7.2    c-3.9,0-7.2,3.2-7.2,7.2V62z" fill="#193651"/></g><g><line fill="#FFFFFF" x1="6.1" x2="6.1" y1="57.5" y2="59.5"/><rect fill="#193651" height="2" width="2" x="5.1" y="57.5"/></g><g><line fill="#FFFFFF" x1="12.2" x2="12.2" y1="57.5" y2="59.5"/><rect fill="#193651" height="2" width="2" x="11.2" y="57.5"/></g><g><line fill="#FFFFFF" x1="28.9" x2="28.9" y1="57.5" y2="59.5"/><rect fill="#193651" height="2" width="2" x="27.9" y="57.5"/></g><g><line fill="#FFFFFF" x1="35.1" x2="35.1" y1="57.5" y2="59.5"/><rect fill="#193651" height="2" width="2" x="34.1" y="57.5"/></g><g><line fill="#FFFFFF" x1="51.8" x2="51.8" y1="57.5" y2="59.5"/><rect fill="#193651" height="2" width="2" x="50.8" y="57.5"/></g><g><line fill="#FFFFFF" x1="57.9" x2="57.9" y1="57.5" y2="59.5"/><rect fill="#193651" height="2" width="2" x="56.9" y="57.5"/></g><g><circle cx="9.2" cy="43.1" fill="#FFFFFF" r="4.5"/><path d="M9.2,48.6c-3,0-5.5-2.5-5.5-5.5c0-3,2.5-5.5,5.5-5.5c3,0,5.5,2.5,5.5,5.5C14.6,46.2,12.2,48.6,9.2,48.6z     M9.2,39.7c-1.9,0-3.5,1.6-3.5,3.5s1.6,3.5,3.5,3.5s3.5-1.6,3.5-3.5S11.1,39.7,9.2,39.7z" fill="#193651"/></g><g><circle cx="32" cy="43.1" fill="#FFFFFF" r="4.5"/><path d="M32,48.6c-3,0-5.5-2.5-5.5-5.5c0-3,2.5-5.5,5.5-5.5c3,0,5.5,2.5,5.5,5.5C37.5,46.2,35,48.6,32,48.6z     M32,39.7c-1.9,0-3.5,1.6-3.5,3.5s1.6,3.5,3.5,3.5s3.5-1.6,3.5-3.5S33.9,39.7,32,39.7z" fill="#193651"/></g><g><circle cx="54.8" cy="43.1" fill="#FFFFFF" r="4.5"/><path d="M54.8,48.6c-3,0-5.5-2.5-5.5-5.5c0-3,2.5-5.5,5.5-5.5c3,0,5.5,2.5,5.5,5.5C60.3,46.2,57.9,48.6,54.8,48.6z     M54.8,39.7c-1.9,0-3.5,1.6-3.5,3.5s1.6,3.5,3.5,3.5c1.9,0,3.5-1.6,3.5-3.5S56.8,39.7,54.8,39.7z" fill="#193651"/></g></g></svg>