<?xml version="1.0" ?><!DOCTYPE svg  PUBLIC '-//W3C//DTD SVG 1.1//EN'  'http://www.w3.org/Graphics/SVG/1.1/DTD/svg11.dtd'><svg enable-background="new 0 0 64 64" id="Layer_1" version="1.1" viewBox="0 0 64 64" xml:space="preserve" xmlns="http://www.w3.org/2000/svg" xmlns:xlink="http://www.w3.org/1999/xlink"><g><circle cx="32" cy="31.2" fill="#F16051" r="31.5"/><rect fill="#FFFFFF" height="39.5" width="54.1" x="5" y="17.1"/><rect fill="#2EA2DB" height="31.5" width="46.1" x="9" y="21.1"/><path d="M1,55.6c0,4.3,3.3,7.7,7.5,7.7h47.1c4.1,0,7.5-3.4,7.5-7.7H1z" fill="#FFFFFF"/><path d="M60,54.6V16.1H4v38.4H0v1c0,4.8,3.8,8.7,8.5,8.7h47.1c4.7,0,8.5-3.9,8.5-8.7v-1H60z M6,18.1H58v36.4H6V18.1   z M55.5,62.3H8.5c-3.2,0-5.9-2.5-6.4-5.7h59.9C61.5,59.8,58.8,62.3,55.5,62.3z" fill="#193651"/><line fill="#2EA2DB" x1="27.9" x2="36.1" y1="59.4" y2="59.4"/><rect fill="#193651" height="2" width="8.2" x="27.9" y="58.4"/><line fill="#2EA2DB" x1="40.4" x2="42.4" y1="59.4" y2="59.4"/><rect fill="#193651" height="2" width="2" x="40.4" y="58.4"/><line fill="#2EA2DB" x1="21.6" x2="23.6" y1="59.4" y2="59.4"/><rect fill="#193651" height="2" width="2" x="21.6" y="58.4"/><path d="M44.6,39v-4.1l-4.1-0.7c-0.1-0.4-0.3-0.9-0.5-1.3l2.4-3.4l-2.9-2.9L36,29c-0.4-0.2-0.8-0.4-1.3-0.5   l-0.7-4.1h-4.1l-0.7,4.1c-0.4,0.1-0.9,0.3-1.3,0.5l-3.4-2.4l-2.9,2.9l2.4,3.4c-0.2,0.4-0.4,0.8-0.5,1.3l-4.1,0.7l0,4.1l4.1,0.7   c0.1,0.4,0.3,0.9,0.5,1.3l-2.4,3.4l2.9,2.9l3.4-2.4c0.4,0.2,0.8,0.4,1.3,0.5l0.7,4.1l4.1,0l0.7-4.1c0.4-0.1,0.9-0.3,1.3-0.5   l3.4,2.4l2.9-2.9l-2.4-3.4c0.2-0.4,0.4-0.8,0.5-1.3L44.6,39z M32,41.8c-2.7,0-4.9-2.2-4.9-4.9c0-2.7,2.2-4.9,4.9-4.9   c2.7,0,4.9,2.2,4.9,4.9C36.9,39.6,34.7,41.8,32,41.8z" fill="#FFFFFF"/></g></svg>